<?xml version="1.0" standalone="no"?>
<!DOCTYPE svg PUBLIC "-//W3C//DTD SVG 20010904//EN"
 "http://www.w3.org/TR/2001/REC-SVG-20010904/DTD/svg10.dtd">
<svg version="1.0" xmlns="http://www.w3.org/2000/svg"
 width="433.000000pt" height="97.000000pt" viewBox="0 0 433.000000 97.000000"
 preserveAspectRatio="xMidYMid meet">

<g transform="translate(0.000000,97.000000) scale(0.100000,-0.100000)"
fill="#000000" stroke="none">
<path d="M0 485 l0 -485 2165 0 2165 0 0 485 0 485 -2165 0 -2165 0 0 -485z
m571 196 l29 -29 0 -132 0 -132 -29 -29 -29 -29 -135 0 c-132 0 -135 0 -161
26 -26 26 -26 29 -26 164 0 135 0 138 26 164 26 26 29 26 161 26 l135 0 29
-29z m524 -25 c41 -18 62 -51 44 -72 -17 -21 -50 -17 -56 7 -17 63 -143 35
-143 -31 0 -35 21 -52 97 -80 78 -28 113 -61 113 -107 0 -81 -62 -129 -156
-121 -89 8 -156 79 -110 117 15 13 45 5 48 -13 0 -6 2 -15 2 -21 7 -57 143
-52 165 7 17 47 7 56 -127 113 -74 32 -101 91 -69 155 26 53 121 75 192 46z
m270 -11 c0 -14 -8 -21 -27 -23 -27 -3 -28 -5 -28 -68 l0 -64 110 0 111 0 -3
67 c-3 65 -4 68 -28 68 -18 0 -25 5 -25 20 0 18 7 20 70 20 63 0 70 -2 70 -20
0 -13 -8 -21 -23 -23 -22 -3 -22 -4 -20 -164 3 -148 5 -161 21 -164 25 -3 31
-10 24 -29 -9 -22 -135 -22 -144 0 -7 20 0 27 29 29 21 1 23 6 26 74 l3 72
-111 0 -111 0 3 -72 c3 -70 4 -73 28 -73 18 0 26 -6 28 -23 3 -21 0 -22 -68
-22 -54 0 -72 4 -77 15 -7 19 -1 26 24 29 16 3 18 16 21 164 2 155 2 162 -17
162 -24 0 -35 15 -27 36 4 12 21 14 73 12 60 -3 68 -5 68 -23z m601 6 c88 -40
140 -152 114 -245 -7 -25 -27 -63 -46 -84 -124 -145 -345 -58 -347 137 -1 153
144 253 279 192z m456 -8 c53 -26 73 -104 43 -162 -20 -40 -71 -61 -149 -61
l-66 0 0 -66 c0 -62 1 -65 23 -62 16 2 23 -3 25 -19 3 -22 0 -23 -67 -23 -39
0 -73 5 -77 11 -7 12 11 34 29 34 9 0 13 44 15 163 2 155 2 162 -17 162 -23 0
-35 15 -28 35 8 18 229 9 269 -12z m406 12 c7 -3 12 -22 12 -50 0 -38 -3 -45
-20 -45 -16 0 -20 7 -20 30 l0 30 -85 0 -85 0 0 -65 0 -65 80 0 c47 0 80 -4
80 -10 0 -5 0 -13 0 -17 0 -5 -35 -10 -77 -13 l-78 -5 -3 -72 -3 -73 86 0 85
0 0 30 c0 23 4 30 20 30 21 0 23 -6 20 -55 -3 -53 -11 -56 -159 -53 -122 3
-136 5 -139 21 -3 12 4 20 17 24 20 5 21 12 21 164 0 132 -2 159 -14 159 -19
0 -29 17 -23 34 4 11 33 13 139 9 73 -2 139 -6 146 -8z m319 3 c4 -7 44 -92
88 -188 65 -140 84 -175 100 -175 13 0 21 -8 23 -22 3 -22 0 -23 -68 -23 -56
0 -72 3 -77 16 -7 18 14 35 34 27 16 -6 17 8 1 42 -11 24 -14 25 -114 25
l-103 0 -16 -30 c-9 -16 -12 -31 -8 -31 5 -1 15 -2 23 -3 8 0 16 -11 18 -24 3
-21 0 -22 -68 -22 -54 0 -72 4 -77 15 -7 20 0 27 27 29 20 1 41 42 168 329 21
48 34 57 49 35z m941 -3 c7 -3 12 -22 12 -50 0 -38 -3 -45 -20 -45 -16 0 -20
7 -20 30 l0 30 -85 0 -85 0 0 -65 0 -65 80 0 c73 0 80 -2 80 -20 0 -17 -8 -19
-77 -22 l-78 -3 -3 -72 -3 -73 86 0 85 0 0 30 c0 23 4 30 20 30 17 0 20 -7 20
-44 0 -25 -6 -48 -14 -55 -9 -8 -57 -11 -147 -9 -120 3 -134 5 -137 21 -3 12
4 20 17 24 20 5 21 12 21 164 0 132 -2 159 -14 159 -19 0 -29 17 -23 34 4 11
33 13 139 9 73 -2 139 -6 146 -8z m-374 -11 c3 -9 6 -17 6 -19 0 -4 -211 -265
-248 -307 -14 -17 -9 -18 101 -18 l117 0 0 36 c0 31 3 35 23 32 20 -3 22 -8
19 -47 -4 -70 -7 -71 -166 -71 -144 0 -166 5 -166 40 0 8 56 83 125 165 68 83
125 153 125 158 0 4 -45 7 -100 7 l-100 0 0 -36 c0 -31 -3 -35 -22 -32 -20 3
-23 8 -21 43 5 67 -1 65 157 65 122 0 145 -2 150 -16z m-3034 -174 c0 -214 -6
-220 -219 -220 -92 0 -142 4 -147 11 -13 22 23 29 158 29 111 0 140 3 152 16
13 13 16 42 16 160 0 137 1 144 20 144 19 0 20 -7 20 -140z"/>
<path d="M276 659 c-25 -20 -26 -23 -26 -139 0 -116 1 -119 26 -139 23 -18 41
-21 133 -21 153 0 151 -2 151 160 0 162 2 160 -151 160 -92 0 -110 -3 -133
-21z"/>
<path d="M1813 604 c-71 -35 -101 -140 -64 -218 29 -58 73 -86 137 -86 64 0
110 28 134 83 26 56 25 105 -3 157 -38 73 -128 101 -204 64z"/>
<path d="M2250 540 l0 -80 58 0 c95 0 144 43 121 107 -13 39 -45 53 -119 53
l-60 0 0 -80z"/>
<path d="M3088 495 l-37 -85 81 0 c60 0 79 3 75 13 -29 69 -71 157 -76 157 -3
0 -23 -39 -43 -85z"/>
</g>
</svg>
